<svg width="52" height="52" viewBox="0 0 52 52" fill="none" xmlns="http://www.w3.org/2000/svg">
<rect width="52" height="52" rx="26" fill="white"/>
<path d="M12 39.8701V33.633H12.6763L15.5115 38.8782L18.3318 33.633H19.0181V39.8657H18.3168V35.0536L15.747 39.8701H15.2711L12.7063 35.0536V39.8701H12Z" fill="#316DC2"/>
<path d="M30.2848 40C29.7805 40 29.3264 39.9278 28.9223 39.7834C28.5215 39.6362 28.1892 39.4283 27.9254 39.1597C27.6649 38.8912 27.4946 38.5721 27.4145 38.2025L28.1659 38.0942C28.2861 38.4985 28.5399 38.8161 28.9273 39.0471C29.3147 39.2752 29.7772 39.3893 30.3149 39.3893C30.6689 39.3893 30.9861 39.3416 31.2666 39.2464C31.5472 39.1482 31.7676 39.0096 31.9279 38.8305C32.0882 38.6515 32.1683 38.4393 32.1683 38.1938C32.1683 38.0321 32.1349 37.895 32.0681 37.7824C32.0013 37.6669 31.9128 37.5716 31.8026 37.4965C31.6924 37.4214 31.5722 37.3593 31.442 37.3103C31.3117 37.2583 31.1848 37.2164 31.0613 37.1846L29.2329 36.7125C29.0124 36.6577 28.8087 36.5884 28.6217 36.5046C28.4347 36.418 28.2711 36.3155 28.1308 36.1971C27.9939 36.0758 27.887 35.9343 27.8102 35.7726C27.7334 35.6109 27.695 35.4261 27.695 35.2182C27.695 34.8659 27.8019 34.5613 28.0156 34.3043C28.2293 34.0473 28.5215 33.8495 28.8922 33.7109C29.2629 33.5723 29.6854 33.5045 30.1596 33.5074C30.6405 33.5074 31.0696 33.581 31.447 33.7283C31.8277 33.8755 32.1416 34.0863 32.3887 34.3606C32.6359 34.6321 32.7995 34.954 32.8796 35.3265L32.1082 35.4478C32.0581 35.1764 31.9429 34.941 31.7626 34.7418C31.5822 34.5425 31.3518 34.3895 31.0713 34.2827C30.7941 34.1729 30.4885 34.1166 30.1546 34.1137C29.8306 34.1137 29.5418 34.1614 29.288 34.2567C29.0375 34.3491 28.8388 34.4761 28.6918 34.6378C28.5449 34.7995 28.4714 34.9843 28.4714 35.1922C28.4714 35.403 28.5382 35.5719 28.6718 35.699C28.8087 35.8261 28.9757 35.9257 29.1727 35.9979C29.3731 36.0701 29.5668 36.1292 29.7538 36.1754L31.1665 36.5349C31.3134 36.5696 31.4854 36.6201 31.6824 36.6865C31.8828 36.7501 32.0765 36.8425 32.2635 36.9637C32.4538 37.0821 32.6108 37.2381 32.7344 37.4315C32.8579 37.625 32.9197 37.8704 32.9197 38.1679C32.9197 38.4566 32.8529 38.715 32.7193 38.9432C32.5891 39.1713 32.4038 39.3633 32.1633 39.5192C31.9262 39.6751 31.6473 39.7935 31.3267 39.8744C31.0095 39.9581 30.6622 40 30.2848 40Z" fill="#316DC2"/>
<path fill-rule="evenodd" clip-rule="evenodd" d="M23.0087 33.633L20.5241 39.8701H21.2905L21.893 38.3584H25.0974L25.7037 39.8701H26.4701L23.9855 33.633H23.0087ZM24.8576 37.7607L23.49 34.3514L22.1312 37.7607H21.6311V38.3584H21.893L22.1312 37.7607H24.8576Z" fill="#316DC2"/>
<path d="M21.6311 37.7607V38.3584H21.893L22.1312 37.7607H21.6311Z" fill="#316DC2"/>
<path fill-rule="evenodd" clip-rule="evenodd" d="M36.5386 33.633L34.0539 39.8701H34.8204L35.4229 38.3584H38.6272L39.2336 39.8701H40L37.5154 33.633H36.5386ZM38.3875 37.7607L37.0199 34.3514L35.6611 37.7607H35.161V38.3584H35.4229L35.6611 37.7607H38.3875Z" fill="#316DC2"/>
<path d="M35.161 37.7607V38.3584H35.4229L35.6611 37.7607H35.161Z" fill="#316DC2"/>
<path d="M17.8125 17.476C17.2909 17.8535 16.9851 18.6529 17.5615 19.6087C18.1378 20.5646 26.372 27.0165 26.6739 27.1957C26.9758 27.375 27.2779 27.4048 28.0461 26.7775C28.8148 26.1502 35.2362 21.2497 35.4019 21.1023C35.6656 20.8678 35.7313 20.2958 35.4019 20.0268C35.4019 20.0268 27.6225 25.941 27.3677 26.1801C27.1132 26.4191 26.7169 26.0308 26.7913 25.5231C26.866 25.0152 26.921 24.9554 27.9091 24.1788C28.8972 23.4021 34.4993 19.0889 34.7535 18.8982C35.0414 18.6821 35.0483 18.3005 34.5768 17.963C33.9214 17.4938 26.8379 12.3763 26.601 12.1971C26.3634 12.0178 26.0345 11.8549 25.5406 12.2134C25.0466 12.5718 18.7709 16.7823 17.8125 17.476Z" fill="#316DC2"/>
<path d="M26.6739 27.8252C26.4757 27.7075 22.8629 24.8896 20.2387 22.6955V27.2702C20.2367 30.6096 29.4981 32.3938 32.5663 28.2887V23.9163C30.6815 25.3631 28.4767 27.0556 28.0461 27.407C27.2779 28.0342 26.9758 28.0044 26.6739 27.8252Z" fill="#316DC2"/>
<path d="M30.593 22.8091C30.593 22.8091 31.97 23.5124 32.068 26.3426L31.4009 26.1558L30.8671 27.3076C30.6413 24.2085 29.4116 23.7591 29.4116 23.7591L30.593 22.8091Z" fill="#98B8E6"/>
</svg>
