<svg viewBox="0 0 10 16" fill="" xmlns="http://www.w3.org/2000/svg"><path d="M5.00071 2.42035C5.96283 2.42035 6.74528 3.18736 6.74528 4.1305C6.74528 5.0708 5.96283 5.83781 5.00071 5.83781C4.03859 5.83781 3.25614 5.0708 3.25614 4.1305C3.25614 3.18736 4.03859 2.42035 5.00071 2.42035ZM5.00071 8.25816C7.32488 8.25816 9.21435 6.40597 9.21435 4.1305C9.21435 1.85219 7.32488 0 5.00071 0C2.67654 0 0.789971 1.85219 0.789971 4.1305C0.789971 6.40597 2.67654 8.25816 5.00071 8.25816ZM6.70471 11.6273C7.56251 11.4342 8.38843 11.1018 9.15059 10.6331C9.72729 10.278 9.90116 9.53083 9.53892 8.96551C9.17378 8.39735 8.41451 8.22691 7.83492 8.58485C6.11063 9.6473 3.89079 9.6473 2.16361 8.58485C1.58691 8.22691 0.824747 8.39735 0.462502 8.96551C0.100257 9.53083 0.274134 10.278 0.850829 10.6331C1.61299 11.1018 2.43891 11.4342 3.29671 11.6273L0.940665 13.934C0.459603 14.4056 0.459603 15.1726 0.940665 15.6442C1.18409 15.88 1.49707 15.9993 1.81295 15.9993C2.12883 15.9993 2.44471 15.88 2.68814 15.6442L5.00071 13.3772L7.31618 15.6442C7.79724 16.1186 8.5768 16.1186 9.06075 15.6442C9.54182 15.1726 9.54182 14.4056 9.06075 13.934L6.70471 11.6273Z" fill=""/></svg>