<svg viewBox="0 0 16 10" fill="" xmlns="http://www.w3.org/2000/svg"><path d="M15.8574 8.42065C15.8144 8.35182 15.5484 7.79922 14.2683 6.66345C12.9282 5.47413 13.1082 5.66725 14.7223 3.6108C15.7054 2.35839 16.0984 1.59355 15.9754 1.26659C15.8584 0.954918 15.1353 1.03714 15.1353 1.03714L12.7312 1.05052C12.7312 1.05052 12.5531 1.02758 12.4201 1.1031C12.2911 1.17768 12.2081 1.34976 12.2081 1.34976C12.2081 1.34976 11.8271 2.31919 11.3191 3.1433C10.248 4.88234 9.81894 4.97412 9.64393 4.86609C9.2369 4.61465 9.33891 3.85459 9.33891 3.31539C9.33891 1.62988 9.60593 0.927192 8.81787 0.745544C8.55585 0.685314 8.36384 0.64516 7.69479 0.638468C6.83672 0.629863 6.10967 0.641336 5.69864 0.8335C5.42462 0.96161 5.21361 1.24747 5.34262 1.26372C5.50163 1.2838 5.86165 1.35646 6.05267 1.60503C6.29969 1.9253 6.29069 2.64616 6.29069 2.64616C6.29069 2.64616 6.4327 4.62994 5.95966 4.8766C5.63464 5.04582 5.1896 4.70069 4.23453 3.12227C3.7455 2.31441 3.37547 1.42051 3.37547 1.42051C3.37547 1.42051 3.30447 1.25416 3.17746 1.16525C3.02345 1.05721 2.80743 1.0228 2.80743 1.0228L0.521262 1.03618C0.521262 1.03618 0.178236 1.04574 0.0522271 1.18819C-0.0597811 1.31535 0.0432264 1.5773 0.0432264 1.5773C0.0432264 1.5773 1.83336 5.58025 3.85951 7.59846C5.71864 9.4484 7.8288 9.32698 7.8288 9.32698H8.78487C8.78487 9.32698 9.07389 9.29639 9.2209 9.14438C9.35691 9.00479 9.35191 8.74284 9.35191 8.74284C9.35191 8.74284 9.33291 7.51624 9.92895 7.33554C10.516 7.15772 11.2701 8.52104 12.0691 9.0459C12.6732 9.44266 13.1322 9.35566 13.1322 9.35566L15.2693 9.32698C15.2693 9.32698 16.3874 9.26101 15.8574 8.42065Z" fill=""/></svg>