<svg xmlns="http://www.w3.org/2000/svg" xmlns:xlink="http://www.w3.org/1999/xlink"><symbol id="about-star" viewBox="0 0 18 22"><g fill="">
<path d="M9 0L12.0138 5.47476L18 5.5L15.0275 11L18 16.5L12.0138 16.5252L9 22L5.98623 16.5252L0 16.5L2.97246 11L0 5.5L5.98623 5.47476L9 0Z" fill=""/>
</g></symbol><symbol id="logo" viewBox="0 0 28 28"><g fill="">
<path d="M0 27.8701V21.633H0.676259L3.51154 26.8782L6.33178 21.633H7.01806V27.8657H6.31676V23.0536L3.74697 27.8701H3.27109L0.706315 23.0536V27.8701H0Z" fill=""/>
<path d="M18.2848 28C17.7805 28 17.3264 27.9278 16.9223 27.7834C16.5215 27.6362 16.1892 27.4283 15.9254 27.1597C15.6649 26.8912 15.4946 26.5721 15.4145 26.2025L16.1659 26.0942C16.2861 26.4985 16.5399 26.8161 16.9273 27.0471C17.3147 27.2752 17.7772 27.3893 18.3149 27.3893C18.6689 27.3893 18.9861 27.3416 19.2666 27.2464C19.5472 27.1482 19.7676 27.0096 19.9279 26.8305C20.0882 26.6515 20.1683 26.4393 20.1683 26.1938C20.1683 26.0321 20.1349 25.895 20.0681 25.7824C20.0013 25.6669 19.9128 25.5716 19.8026 25.4965C19.6924 25.4214 19.5722 25.3593 19.442 25.3103C19.3117 25.2583 19.1848 25.2164 19.0613 25.1846L17.2329 24.7125C17.0124 24.6577 16.8087 24.5884 16.6217 24.5046C16.4347 24.418 16.2711 24.3155 16.1308 24.1971C15.9939 24.0758 15.887 23.9343 15.8102 23.7726C15.7334 23.6109 15.695 23.4261 15.695 23.2182C15.695 22.8659 15.8019 22.5613 16.0156 22.3043C16.2293 22.0473 16.5215 21.8495 16.8922 21.7109C17.2629 21.5723 17.6854 21.5045 18.1596 21.5074C18.6405 21.5074 19.0696 21.581 19.447 21.7283C19.8277 21.8755 20.1416 22.0863 20.3887 22.3606C20.6359 22.6321 20.7995 22.954 20.8796 23.3265L20.1082 23.4478C20.0581 23.1764 19.9429 22.941 19.7626 22.7418C19.5822 22.5425 19.3518 22.3895 19.0713 22.2827C18.7941 22.1729 18.4885 22.1166 18.1546 22.1137C17.8306 22.1137 17.5418 22.1614 17.288 22.2567C17.0375 22.3491 16.8388 22.4761 16.6918 22.6378C16.5449 22.7995 16.4714 22.9843 16.4714 23.1922C16.4714 23.403 16.5382 23.5719 16.6718 23.699C16.8087 23.8261 16.9757 23.9257 17.1727 23.9979C17.3731 24.0701 17.5668 24.1292 17.7538 24.1754L19.1665 24.5349C19.3134 24.5696 19.4854 24.6201 19.6824 24.6865C19.8828 24.7501 20.0765 24.8425 20.2635 24.9637C20.4538 25.0821 20.6108 25.2381 20.7344 25.4315C20.8579 25.625 20.9197 25.8704 20.9197 26.1679C20.9197 26.4566 20.8529 26.715 20.7193 26.9432C20.5891 27.1713 20.4038 27.3633 20.1633 27.5192C19.9262 27.6751 19.6473 27.7935 19.3267 27.8744C19.0095 27.9581 18.6622 28 18.2848 28Z" fill=""/>
<path fill-rule="evenodd" clip-rule="evenodd" d="M11.0087 21.633L8.52407 27.8701H9.29049L9.89298 26.3584H13.0974L13.7037 27.8701H14.4701L11.9855 21.633H11.0087ZM12.8576 25.7607L11.49 22.3514L10.1312 25.7607H9.63113V26.3584H9.89298L10.1312 25.7607H12.8576Z" fill=""/>
<path d="M9.63113 25.7607V26.3584H9.89298L10.1312 25.7607H9.63113Z" fill=""/>
<path fill-rule="evenodd" clip-rule="evenodd" d="M24.5386 21.633L22.0539 27.8701H22.8204L23.4229 26.3584H26.6272L27.2336 27.8701H28L25.5154 21.633H24.5386ZM26.3875 25.7607L25.0199 22.3514L23.6611 25.7607H23.161V26.3584H23.4229L23.6611 25.7607H26.3875Z" fill=""/>
<path d="M23.161 25.7607V26.3584H23.4229L23.6611 25.7607H23.161Z" fill=""/>
<path d="M5.81254 5.47597C5.29087 5.85346 4.98512 6.6529 5.56148 7.60874C6.13783 8.56458 14.372 15.0165 14.6739 15.1957C14.9758 15.375 15.2779 15.4048 16.0461 14.7775C16.8148 14.1502 23.2362 9.24971 23.4019 9.10231C23.6656 8.86779 23.7313 8.29579 23.4019 8.02685C23.4019 8.02685 15.6225 13.941 15.3677 14.1801C15.1132 14.4191 14.7169 14.0308 14.7913 13.5231C14.866 13.0152 14.921 12.9554 15.9091 12.1788C16.8972 11.4021 22.4993 7.08887 22.7535 6.89821C23.0414 6.68214 23.0483 6.30052 22.5768 5.96305C21.9214 5.49384 14.8379 0.376276 14.601 0.19713C14.3634 0.0178359 14.0345 -0.145063 13.5406 0.213377C13.0466 0.571818 6.77091 4.78227 5.81254 5.47597Z" fill=""/>
<path d="M14.6739 15.8252C14.4757 15.7075 10.8629 12.8896 8.23872 10.6955V15.2702C8.23669 18.6096 17.4981 20.3938 20.5663 16.2887V11.9163C18.6815 13.3631 16.4767 15.0556 16.0461 15.407C15.2779 16.0342 14.9758 16.0044 14.6739 15.8252Z" fill=""/>
<path d="M18.593 10.8091C18.593 10.8091 19.97 11.5124 20.068 14.3426L19.4009 14.1558L18.8671 15.3076C18.6413 12.2085 17.4116 11.7591 17.4116 11.7591L18.593 10.8091Z" fill="#98B8E6"/>
</g></symbol><symbol id="odnoklassniki" viewBox="0 0 10 16"><g fill="">
<path d="M5.00071 2.42035C5.96283 2.42035 6.74528 3.18736 6.74528 4.1305C6.74528 5.0708 5.96283 5.83781 5.00071 5.83781C4.03859 5.83781 3.25614 5.0708 3.25614 4.1305C3.25614 3.18736 4.03859 2.42035 5.00071 2.42035ZM5.00071 8.25816C7.32488 8.25816 9.21435 6.40597 9.21435 4.1305C9.21435 1.85219 7.32488 0 5.00071 0C2.67654 0 0.789971 1.85219 0.789971 4.1305C0.789971 6.40597 2.67654 8.25816 5.00071 8.25816ZM6.70471 11.6273C7.56251 11.4342 8.38843 11.1018 9.15059 10.6331C9.72729 10.278 9.90116 9.53083 9.53892 8.96551C9.17378 8.39735 8.41451 8.22691 7.83492 8.58485C6.11063 9.6473 3.89079 9.6473 2.16361 8.58485C1.58691 8.22691 0.824747 8.39735 0.462502 8.96551C0.100257 9.53083 0.274134 10.278 0.850829 10.6331C1.61299 11.1018 2.43891 11.4342 3.29671 11.6273L0.940665 13.934C0.459603 14.4056 0.459603 15.1726 0.940665 15.6442C1.18409 15.88 1.49707 15.9993 1.81295 15.9993C2.12883 15.9993 2.44471 15.88 2.68814 15.6442L5.00071 13.3772L7.31618 15.6442C7.79724 16.1186 8.5768 16.1186 9.06075 15.6442C9.54182 15.1726 9.54182 14.4056 9.06075 13.934L6.70471 11.6273Z" fill=""/>
</g></symbol><symbol id="reddit" viewBox="0 0 16 16"><g fill="">
<path d="M9.41405 0.363525C8.94762 0.363525 8.50993 0.611969 8.22919 0.97025C7.94845 1.32853 7.79371 1.76527 7.68097 2.22554C7.50191 2.96564 7.44665 3.78681 7.43339 4.52691C6.12252 4.61844 4.93545 5.02641 3.94954 5.65668C3.54942 5.30363 3.06752 5.10749 2.60551 5.11272C2.0794 5.11795 1.57981 5.35593 1.20844 5.84497C0.498845 6.77859 0.580636 8.30587 1.40297 9.21334C1.35212 9.49317 1.31454 9.78084 1.31454 10.0711C1.31454 13.1466 4.30765 15.6363 7.99929 15.6363C11.6909 15.6363 14.684 13.144 14.684 10.0711C14.684 9.78084 14.6465 9.49317 14.5956 9.21334C15.4179 8.30587 15.4997 6.77859 14.7901 5.84497C14.4188 5.35593 13.9192 5.11795 13.3931 5.11272C12.9311 5.10749 12.4492 5.30363 12.049 5.65668C11.0676 5.02903 9.88711 4.62106 8.58288 4.52691C8.60056 3.84435 8.64699 3.13563 8.77741 2.60213C8.8592 2.26739 8.95646 2.02417 9.06036 1.8908C9.16426 1.75742 9.23942 1.7025 9.41405 1.7025C9.79206 1.7025 9.84069 1.83065 10.0684 2.14186C10.1833 2.29877 10.316 2.49491 10.5282 2.68582C10.7404 2.87673 11.0543 3.04148 11.3947 3.04148V1.7025C11.2997 1.7025 11.282 1.69989 11.2179 1.63974C11.1538 1.57959 11.0653 1.44098 10.9349 1.26315C10.6741 0.904871 10.1679 0.363525 9.41405 0.363525ZM13.0924 0.489055C12.2126 0.489055 11.5008 1.33115 11.5008 2.37199C11.5008 3.41284 12.2126 4.25493 13.0924 4.25493C13.9722 4.25493 14.684 3.41284 14.684 2.37199C14.684 1.33115 13.9722 0.489055 13.0924 0.489055ZM13.0924 1.15854C13.6583 1.15854 14.1181 1.7025 14.1181 2.37199C14.1181 3.04148 13.6583 3.58544 13.0924 3.58544C12.5265 3.58544 12.0667 3.04148 12.0667 2.37199C12.0667 1.7025 12.5265 1.15854 13.0924 1.15854ZM7.99929 5.57299C11.1317 5.57299 13.7821 7.63638 13.7821 10.0711C13.7821 12.5085 11.1317 14.5693 7.99929 14.5693C4.86692 14.5693 2.21645 12.5085 2.21645 10.0711C2.21645 7.63638 4.86692 5.57299 7.99929 5.57299ZM2.6232 6.17972C2.78015 6.18233 2.94373 6.22417 3.10068 6.30524C2.53256 6.81521 2.08161 7.40101 1.77434 8.06265C1.56213 7.54485 1.6196 6.89889 1.88045 6.5563C2.07056 6.30524 2.33361 6.1771 2.6232 6.17972ZM13.3754 6.17972C13.665 6.1771 13.928 6.30524 14.1181 6.5563C14.379 6.89889 14.4365 7.54485 14.2242 8.06265C13.917 7.40101 13.466 6.81521 12.8979 6.30524C13.0549 6.22417 13.2184 6.18233 13.3754 6.17972ZM5.73567 7.85344C5.16977 7.85344 4.70997 8.3974 4.70997 9.06689C4.70997 9.73638 5.16977 10.2803 5.73567 10.2803C6.30158 10.2803 6.76137 9.73638 6.76137 9.06689C6.76137 8.3974 6.30158 7.85344 5.73567 7.85344ZM10.2629 7.85344C9.697 7.85344 9.23721 8.3974 9.23721 9.06689C9.23721 9.73638 9.697 10.2803 10.2629 10.2803C10.8288 10.2803 11.2886 9.73638 11.2886 9.06689C11.2886 8.3974 10.8288 7.85344 10.2629 7.85344ZM5.18745 11.975C5.54777 12.8563 6.6619 13.7115 7.99929 13.7115C9.33668 13.7115 10.4685 12.8563 10.8288 11.975C10.1745 12.4745 9.14215 12.8118 7.99929 12.8118C6.85643 12.8118 5.84178 12.4745 5.18745 11.975Z" fill=""/>
</g></symbol><symbol id="vk" viewBox="0 0 16 10"><g fill="">
<path d="M15.8574 8.42065C15.8144 8.35182 15.5484 7.79922 14.2683 6.66345C12.9282 5.47413 13.1082 5.66725 14.7223 3.6108C15.7054 2.35839 16.0984 1.59355 15.9754 1.26659C15.8584 0.954918 15.1353 1.03714 15.1353 1.03714L12.7312 1.05052C12.7312 1.05052 12.5531 1.02758 12.4201 1.1031C12.2911 1.17768 12.2081 1.34976 12.2081 1.34976C12.2081 1.34976 11.8271 2.31919 11.3191 3.1433C10.248 4.88234 9.81894 4.97412 9.64393 4.86609C9.2369 4.61465 9.33891 3.85459 9.33891 3.31539C9.33891 1.62988 9.60593 0.927192 8.81787 0.745544C8.55585 0.685314 8.36384 0.64516 7.69479 0.638468C6.83672 0.629863 6.10967 0.641336 5.69864 0.8335C5.42462 0.96161 5.21361 1.24747 5.34262 1.26372C5.50163 1.2838 5.86165 1.35646 6.05267 1.60503C6.29969 1.9253 6.29069 2.64616 6.29069 2.64616C6.29069 2.64616 6.4327 4.62994 5.95966 4.8766C5.63464 5.04582 5.1896 4.70069 4.23453 3.12227C3.7455 2.31441 3.37547 1.42051 3.37547 1.42051C3.37547 1.42051 3.30447 1.25416 3.17746 1.16525C3.02345 1.05721 2.80743 1.0228 2.80743 1.0228L0.521262 1.03618C0.521262 1.03618 0.178236 1.04574 0.0522271 1.18819C-0.0597811 1.31535 0.0432264 1.5773 0.0432264 1.5773C0.0432264 1.5773 1.83336 5.58025 3.85951 7.59846C5.71864 9.4484 7.8288 9.32698 7.8288 9.32698H8.78487C8.78487 9.32698 9.07389 9.29639 9.2209 9.14438C9.35691 9.00479 9.35191 8.74284 9.35191 8.74284C9.35191 8.74284 9.33291 7.51624 9.92895 7.33554C10.516 7.15772 11.2701 8.52104 12.0691 9.0459C12.6732 9.44266 13.1322 9.35566 13.1322 9.35566L15.2693 9.32698C15.2693 9.32698 16.3874 9.26101 15.8574 8.42065Z" fill=""/>
</g></symbol></svg>